<svg width="20" height="20" viewBox="0 0 20 20" fill="none" xmlns="http://www.w3.org/2000/svg">
<g id="instagram" clip-path="url(#clip0_86_1928)">
<g id="Group">
<path id="Vector" d="M9.86025 0C7.20453 0 6.87058 0.0125 5.82713 0.06C4.78368 0.11 4.07296 0.2775 3.45032 0.525C2.79721 0.776024 2.20563 1.16978 1.71695 1.67875C1.21917 2.17837 0.833878 2.7828 0.58787 3.45C0.345662 4.085 0.180521 4.8125 0.132814 5.875C0.0863294 6.94375 0.0740967 7.28375 0.0740967 10.0013C0.0740967 12.7163 0.0863294 13.0563 0.132814 14.1225C0.181744 15.1875 0.345662 15.9137 0.58787 16.55C0.83864 17.2075 1.17259 17.765 1.71695 18.3212C2.26008 18.8775 2.80566 19.22 3.4491 19.475C4.07296 19.7225 4.78246 19.8912 5.82468 19.94C6.86936 19.9875 7.20208 20 9.86025 20C12.5184 20 12.8499 19.9875 13.8946 19.94C14.9356 19.89 15.6488 19.7225 16.2714 19.475C16.9241 19.2239 17.5152 18.8301 18.0035 18.3212C18.5479 17.765 18.8819 17.2075 19.1326 16.55C19.3736 15.9137 19.5387 15.1875 19.5877 14.1225C19.6342 13.0563 19.6464 12.7163 19.6464 10C19.6464 7.28375 19.6342 6.94375 19.5877 5.87625C19.5387 4.8125 19.3736 4.085 19.1326 3.45C18.8867 2.78278 18.5014 2.17834 18.0035 1.67875C17.515 1.16959 16.9234 0.775807 16.2702 0.525C15.6463 0.2775 14.9344 0.10875 13.8934 0.06C12.8487 0.0125 12.5172 0 9.8578 0H9.86147H9.86025ZM8.98316 1.8025H9.86147C12.4744 1.8025 12.7839 1.81125 13.8151 1.86C14.7692 1.90375 15.2879 2.0675 15.6329 2.20375C16.0891 2.385 16.4157 2.6025 16.7583 2.9525C17.1008 3.3025 17.3124 3.635 17.4898 4.1025C17.6243 4.45375 17.7834 4.98375 17.8262 5.95875C17.8739 7.0125 17.8837 7.32875 17.8837 9.9975C17.8837 12.6663 17.8739 12.9837 17.8262 14.0375C17.7834 15.0125 17.6231 15.5413 17.4898 15.8938C17.3329 16.3279 17.0825 16.7205 16.757 17.0425C16.4145 17.3925 16.0891 17.6088 15.6316 17.79C15.2891 17.9275 14.7704 18.09 13.8151 18.135C12.7839 18.1825 12.4744 18.1938 9.86147 18.1938C7.24857 18.1938 6.93786 18.1825 5.90664 18.135C4.95249 18.09 4.43505 17.9275 4.09009 17.79C3.665 17.6299 3.28044 17.3745 2.96468 17.0425C2.63899 16.72 2.38818 16.3271 2.23072 15.8925C2.09738 15.5412 1.93714 15.0113 1.89432 14.0363C1.84784 12.9825 1.83805 12.6663 1.83805 9.995C1.83805 7.325 1.84784 7.01 1.89432 5.95625C1.93836 4.98125 2.09738 4.45125 2.23194 4.09875C2.40932 3.6325 2.62217 3.29875 2.96468 2.94875C3.3072 2.59875 3.63259 2.3825 4.09009 2.20125C4.43505 2.06375 4.95249 1.90125 5.90664 1.85625C6.80942 1.81375 7.15927 1.80125 8.98316 1.8V1.8025ZM15.0848 3.4625C14.9306 3.4625 14.7779 3.49354 14.6354 3.55384C14.493 3.61415 14.3635 3.70254 14.2544 3.81397C14.1454 3.9254 14.0589 4.05769 13.9999 4.20328C13.9409 4.34887 13.9105 4.50491 13.9105 4.6625C13.9105 4.82009 13.9409 4.97613 13.9999 5.12172C14.0589 5.26731 14.1454 5.3996 14.2544 5.51103C14.3635 5.62246 14.493 5.71085 14.6354 5.77116C14.7779 5.83146 14.9306 5.8625 15.0848 5.8625C15.3963 5.8625 15.695 5.73607 15.9152 5.51103C16.1354 5.28598 16.2592 4.98076 16.2592 4.6625C16.2592 4.34424 16.1354 4.03902 15.9152 3.81397C15.695 3.58893 15.3963 3.4625 15.0848 3.4625ZM9.86147 4.865C9.19488 4.85437 8.53287 4.97936 7.914 5.23268C7.29513 5.486 6.73176 5.86259 6.25668 6.34053C5.78161 6.81847 5.40432 7.38821 5.1468 8.01657C4.88927 8.64494 4.75665 9.31938 4.75665 10.0006C4.75665 10.6819 4.88927 11.3563 5.1468 11.9847C5.40432 12.613 5.78161 13.1828 6.25668 13.6607C6.73176 14.1387 7.29513 14.5153 7.914 14.7686C8.53287 15.0219 9.19488 15.1469 9.86147 15.1363C11.1808 15.1152 12.4392 14.5649 13.3649 13.6041C14.2906 12.6432 14.8095 11.349 14.8095 10.0006C14.8095 8.65228 14.2906 7.35802 13.3649 6.39719C12.4392 5.43636 11.1808 4.88603 9.86147 4.865ZM9.86147 6.66625C10.7267 6.66625 11.5565 7.01748 12.1684 7.64268C12.7802 8.26788 13.1239 9.11583 13.1239 10C13.1239 10.8842 12.7802 11.7321 12.1684 12.3573C11.5565 12.9825 10.7267 13.3337 9.86147 13.3337C8.99621 13.3337 8.16639 12.9825 7.55456 12.3573C6.94274 11.7321 6.59901 10.8842 6.59901 10C6.59901 9.11583 6.94274 8.26788 7.55456 7.64268C8.16639 7.01748 8.99621 6.66625 9.86147 6.66625Z" fill="white"/>
</g>
</g>
<defs>
<clipPath id="clip0_86_1928">
<rect width="19.5723" height="20" fill="white" transform="translate(0.0740967)"/>
</clipPath>
</defs>
</svg>
