<svg width="20" height="20" viewBox="0 0 20 20" fill="none" xmlns="http://www.w3.org/2000/svg">
<g id="twitter" clip-path="url(#clip0_86_1931)">
<g id="Group">
<path id="Vector" d="M6.21749 18.75C13.6036 18.75 17.644 12.4963 17.644 7.08251C17.644 6.90751 17.644 6.73001 17.6367 6.55501C18.4233 5.97312 19.1022 5.2527 19.6416 4.42751C18.9068 4.75858 18.1282 4.97677 17.3309 5.07501C18.1707 4.56206 18.7997 3.75497 19.101 2.80376C18.3119 3.28142 17.4483 3.61673 16.548 3.79501C15.9427 3.13629 15.1417 2.69991 14.2691 2.55346C13.3966 2.40701 12.5011 2.55866 11.7214 2.98493C10.9417 3.4112 10.3213 4.0883 9.95635 4.91134C9.59137 5.73438 9.50218 6.65743 9.70258 7.53751C8.1059 7.4557 6.54387 7.03185 5.11782 6.29344C3.69176 5.55503 2.43353 4.51857 1.42472 3.25126C0.912584 4.15512 0.756292 5.22426 0.987578 6.24159C1.21886 7.25893 1.82039 8.14817 2.67001 8.72876C2.03334 8.70666 1.41068 8.53196 0.852228 8.21876V8.27501C0.853326 9.22186 1.17432 10.1393 1.76096 10.8722C2.3476 11.6051 3.1639 12.1086 4.07187 12.2975C3.72723 12.3945 3.37122 12.4429 3.01374 12.4413C2.76173 12.442 2.51022 12.4182 2.26266 12.37C2.51928 13.1851 3.01897 13.8977 3.69174 14.4081C4.3645 14.9185 5.17665 15.2011 6.01442 15.2163C4.59122 16.3585 2.83319 16.978 1.02349 16.975C0.704605 16.9764 0.385946 16.9576 0.0693359 16.9188C1.90609 18.1153 4.03921 18.7507 6.21749 18.75Z" fill="white"/>
</g>
</g>
<defs>
<clipPath id="clip0_86_1931">
<rect width="19.5723" height="20" fill="white" transform="translate(0.0693359)"/>
</clipPath>
</defs>
</svg>
